<?xml version="1.0" standalone="no"?>
<!DOCTYPE svg PUBLIC "-//W3C//DTD SVG 20010904//EN"
 "http://www.w3.org/TR/2001/REC-SVG-20010904/DTD/svg10.dtd">
<svg version="1.0" xmlns="http://www.w3.org/2000/svg"
 width="512.000000pt" height="512.000000pt" viewBox="0 0 512.000000 512.000000"
 preserveAspectRatio="xMidYMid meet">
<metadata>
Created by potrace 1.14, written by Peter Selinger 2001-2017
</metadata>
<g transform="translate(0.000000,512.000000) scale(0.100000,-0.100000)"
fill="#000000" stroke="none">
<path d="M2645 4585 c1 -14 -1 -23 -4 -21 -4 3 -16 -13 -28 -35 -12 -22 -17
-36 -11 -33 6 4 -1 -10 -15 -31 -14 -21 -24 -42 -21 -47 3 -4 0 -8 -5 -8 -6 0
-11 -7 -11 -15 0 -8 -5 -15 -11 -15 -6 0 -9 -9 -6 -20 3 -11 1 -18 -4 -14 -5
3 -9 -2 -9 -11 0 -9 -4 -13 -10 -10 -5 3 -10 -3 -10 -14 0 -10 -5 -21 -10 -23
-6 -2 -12 -13 -12 -25 -1 -11 -7 -19 -14 -16 -6 2 -14 -7 -18 -21 -3 -14 -11
-26 -16 -26 -5 0 -6 -7 -3 -17 4 -9 2 -14 -3 -10 -6 3 -16 -3 -23 -15 -9 -15
-10 -18 0 -13 8 5 10 4 5 -3 -4 -7 -14 -12 -22 -12 -8 0 -14 -7 -14 -15 0 -8
-7 -15 -15 -15 -8 0 -14 -3 -14 -7 4 -22 -2 -33 -13 -27 -8 5 -9 2 -5 -9 3 -9
2 -19 -3 -22 -4 -3 -11 1 -13 7 -4 10 -6 9 -6 -1 -1 -7 -10 -22 -22 -32 -12
-10 -18 -23 -13 -30 4 -7 3 -10 -2 -6 -9 5 -46 -16 -45 -27 2 -18 0 -19 -9 -6
-7 11 -10 11 -10 2 0 -15 -65 -82 -80 -82 -5 0 -10 -7 -10 -16 0 -8 -4 -12
-10 -9 -5 3 -10 1 -10 -5 0 -6 -5 -8 -12 -4 -8 5 -9 2 -5 -10 4 -10 3 -15 -3
-11 -6 3 -10 2 -10 -4 0 -6 -7 -7 -17 -4 -9 4 -14 2 -11 -3 7 -11 -17 -36 -26
-27 -3 3 -8 -2 -12 -11 -3 -9 -10 -13 -15 -10 -8 5 -13 -10 -10 -29 1 -5 -3
-6 -9 -2 -22 13 -31 -7 -13 -28 l18 -22 -23 19 c-22 19 -23 19 -37 0 -8 -10
-15 -15 -15 -11 0 14 -30 -20 -30 -35 0 -9 -2 -10 -8 -1 -5 8 -14 6 -32 -8
l-25 -20 35 3 c19 1 41 7 49 12 12 9 13 8 6 -4 -8 -13 -7 -13 8 -1 13 10 17
10 17 1 0 -8 6 -9 18 -5 25 11 201 12 195 2 -3 -5 3 -5 13 1 11 5 42 7 69 5
63 -5 66 -5 90 0 11 2 29 0 39 -5 16 -9 18 -7 13 6 -5 13 -3 15 11 8 9 -5 34
-8 55 -7 20 1 37 -3 37 -9 1 -6 8 0 16 14 8 14 13 18 10 9 -4 -15 4 -17 57
-15 34 0 67 4 74 9 6 4 15 2 19 -4 5 -8 3 -9 -6 -4 -9 5 -11 4 -6 -4 5 -8 12
-9 19 -2 15 12 29 12 44 0 8 -7 15 -4 22 8 6 10 11 13 11 7 0 -7 9 -14 21 -17
15 -4 19 -2 15 9 -5 12 -2 12 17 3 12 -7 22 -13 23 -13 0 -1 8 5 17 12 12 10
17 10 23 1 5 -8 3 -9 -6 -4 -9 5 -11 4 -6 -4 4 -6 12 -8 18 -5 17 11 200 11
222 1 15 -8 18 -6 13 7 -6 16 -1 15 34 -6 3 -1 13 3 22 10 12 10 17 10 23 1 5
-8 3 -9 -6 -4 -9 5 -11 4 -6 -3 4 -7 14 -9 24 -4 9 4 31 7 47 6 17 -1 35 3 42
8 7 6 14 5 19 -3 5 -8 3 -9 -6 -4 -9 5 -11 4 -6 -3 5 -8 13 -9 25 -2 12 6 22
5 31 -3 10 -10 12 -8 6 7 -5 16 -4 17 8 7 8 -7 20 -10 26 -6 5 3 10 2 10 -3 0
-6 14 -7 35 -2 19 4 35 5 35 1 0 -3 16 -7 35 -8 20 -1 33 2 30 8 -4 5 -13 9
-21 9 -8 0 -14 5 -14 10 0 6 -4 10 -10 10 -9 0 -35 19 -65 48 -8 6 -18 12 -23
12 -6 0 -12 4 -14 8 -1 4 -23 23 -48 42 -25 19 -47 37 -50 40 -20 21 -64 49
-71 44 -5 -3 -6 2 -3 10 3 9 1 16 -6 16 -6 0 -8 5 -4 12 4 7 3 8 -4 4 -7 -4
-12 -2 -12 5 0 7 -3 10 -6 6 -3 -3 -23 12 -43 34 -21 21 -41 36 -46 31 -5 -4
-6 -2 -2 3 3 6 -1 19 -9 29 -12 17 -16 17 -31 5 -16 -13 -17 -12 -5 2 10 14
10 20 -3 33 -9 9 -21 14 -26 11 -5 -4 -6 0 -4 7 3 8 -6 24 -20 36 -14 13 -23
27 -20 32 3 6 -1 10 -10 10 -10 0 -13 5 -9 12 5 7 2 9 -9 5 -11 -4 -14 -2 -11
7 3 7 -2 19 -11 26 -8 7 -15 18 -15 25 0 8 -5 15 -11 17 -5 2 -11 12 -13 21
-1 10 -9 23 -17 27 -8 5 -14 15 -14 22 -1 7 -7 12 -14 10 -7 -1 -10 2 -6 8 8
13 -14 52 -25 45 -6 -3 -7 1 -4 9 3 9 -3 27 -15 42 -11 14 -18 31 -14 37 4 6
0 8 -8 5 -10 -4 -15 4 -16 26 -2 17 -7 32 -13 34 -6 2 -8 8 -4 13 3 5 -1 12
-10 15 -8 3 -12 12 -10 19 3 7 0 16 -5 20 -6 3 -9 10 -6 15 3 4 -1 10 -9 13
-10 4 -13 -1 -11 -18z m3 -75 c-7 -10 -14 -17 -17 -15 -4 4 18 35 25 35 2 0
-1 -9 -8 -20z m-84 -276 c3 -8 2 -12 -4 -9 -6 3 -10 10 -10 16 0 14 7 11 14
-7z m-149 -234 c3 -6 -1 -7 -9 -4 -18 7 -21 14 -7 14 6 0 13 -4 16 -10z m-10
-88 c-3 -3 -11 0 -18 7 -9 10 -8 11 6 5 10 -3 15 -9 12 -12z m719 -158 c3 -8
2 -12 -4 -9 -6 3 -10 10 -10 16 0 14 7 11 14 -7z"/>
<path d="M3647 3401 c1 -2 -2 -12 -8 -22 -6 -12 -6 -19 0 -19 10 0 9 -19 -2
-37 -5 -7 -4 -13 1 -13 12 0 7 -82 -12 -205 -10 -57 -66 -248 -78 -262 -6 -7
-8 -13 -5 -13 9 0 -62 -147 -105 -218 -21 -34 -38 -67 -38 -72 0 -6 -4 -10 -8
-10 -5 0 -13 -10 -19 -22 -18 -39 -165 -219 -249 -304 -120 -123 -167 -163
-367 -316 -127 -97 -201 -174 -237 -243 -19 -37 -22 -55 -18 -103 6 -65 17
-88 66 -143 42 -47 155 -103 222 -111 14 -2 30 -6 35 -9 16 -10 304 -8 339 2
17 5 50 11 72 13 23 3 53 10 68 15 14 6 26 9 26 6 0 -5 118 44 170 71 210 106
402 344 467 578 9 34 19 63 22 66 3 3 7 14 8 25 2 11 5 31 8 45 21 96 31 204
29 320 -2 120 -7 176 -29 285 -4 17 -8 39 -10 50 -7 47 -69 216 -107 295 -49
100 -95 174 -154 250 -38 48 -93 113 -87 101z"/>
<path d="M1956 3283 c-2 -3 -19 -7 -38 -9 -57 -9 -170 -42 -244 -72 -200 -81
-376 -256 -476 -472 -31 -67 -65 -158 -73 -200 -2 -8 -4 -15 -5 -15 -1 0 -3
-7 -5 -15 -1 -8 -10 -48 -18 -89 -9 -41 -14 -78 -11 -82 2 -4 1 -10 -4 -13 -9
-5 -8 -243 2 -333 6 -53 35 -187 66 -304 5 -20 23 -66 39 -102 17 -37 28 -67
25 -67 -3 0 0 -6 6 -12 6 -7 33 -53 61 -101 27 -49 59 -98 69 -110 11 -11 20
-24 20 -27 0 -8 89 -107 90 -100 0 3 1 50 2 105 1 85 7 135 32 260 2 11 17 58
32 105 15 47 28 87 29 90 2 11 107 218 128 252 41 68 146 212 199 273 129 147
257 263 449 410 246 187 306 279 269 415 -15 54 -86 127 -160 161 -50 24 -77
32 -150 47 -30 6 -329 10 -334 5z"/>
<path d="M1645 880 c-3 -5 -1 -10 4 -10 6 0 11 5 11 10 0 6 -2 10 -4 10 -3 0
-8 -4 -11 -10z"/>
<path d="M1670 871 c0 -11 6 -21 14 -21 8 0 16 -6 19 -12 3 -10 8 -9 23 2 17
14 18 13 6 -1 -10 -14 -8 -19 14 -35 14 -10 32 -25 40 -32 8 -7 14 -11 14 -7
0 3 10 -3 22 -15 12 -11 28 -20 35 -20 7 0 13 -5 13 -11 0 -5 5 -7 10 -4 6 3
10 1 10 -5 0 -6 5 -8 10 -5 6 3 10 1 10 -6 0 -6 8 -9 19 -6 15 3 18 1 14 -11
-4 -10 -2 -13 5 -8 7 4 12 2 12 -3 0 -6 3 -10 8 -9 4 1 17 -3 30 -10 12 -7 22
-9 22 -5 0 4 4 2 9 -5 5 -8 20 -15 34 -15 14 -1 23 -5 20 -9 -4 -7 5 -10 23
-7 4 0 10 -4 13 -10 4 -6 21 -11 39 -13 18 -1 32 -6 32 -10 0 -4 8 -8 18 -8 9
0 30 -7 45 -15 18 -9 25 -10 20 -2 -4 7 0 6 10 -2 10 -8 20 -11 24 -8 3 4 11
3 17 -3 7 -5 40 -10 74 -12 34 -2 62 -6 62 -10 0 -8 21 -5 39 6 10 7 12 5 6
-4 -6 -9 1 -11 29 -8 20 2 36 0 36 -4 0 -4 5 -8 11 -8 6 0 8 7 5 17 -6 15 -5
15 11 2 13 -11 37 -15 83 -13 36 1 78 3 93 3 20 1 26 5 21 14 -5 8 -2 8 9 -2
11 -8 17 -9 17 -2 0 7 8 8 24 1 13 -5 27 -6 30 -2 4 3 19 8 34 10 14 2 33 9
41 15 11 9 13 9 8 0 -5 -7 -1 -10 10 -8 10 2 19 4 21 5 1 2 7 4 12 5 6 1 13 4
18 5 4 1 10 2 15 1 4 0 7 5 7 12 0 8 4 7 10 -3 5 -8 10 -10 10 -4 0 6 6 11 13
12 10 0 38 6 72 16 6 1 21 7 35 13 14 6 45 19 70 29 25 10 50 22 55 27 6 7 5
7 -5 2 -9 -5 -12 -4 -7 1 5 5 14 9 20 10 7 0 20 2 30 2 10 1 16 6 13 11 -3 5
10 12 29 15 19 4 41 16 48 26 8 11 17 17 20 13 4 -3 7 0 7 7 0 7 3 10 7 7 3
-4 12 1 20 11 10 11 12 12 8 2 -4 -10 -2 -9 8 3 8 9 19 17 26 17 6 0 14 7 17
15 4 8 10 12 15 9 5 -3 9 0 9 5 0 6 7 11 16 11 8 0 13 3 11 8 -3 4 1 13 9 20
8 7 14 10 14 7 0 -4 7 0 15 9 19 18 19 23 0 23 -8 0 -15 -4 -15 -8 0 -4 -6 -7
-12 -6 -52 2 -79 -4 -72 -15 6 -10 5 -10 -8 -1 -8 7 -18 10 -21 6 -11 -10
-196 -10 -190 1 4 5 0 6 -7 1 -19 -12 -160 -13 -153 -2 3 5 -3 5 -13 0 -11 -5
-46 -9 -79 -8 -33 2 -65 -2 -72 -7 -7 -6 -14 -5 -19 3 -5 8 -3 9 6 4 9 -5 11
-4 6 4 -4 6 -13 8 -19 4 -17 -11 -30 -11 -44 -1 -7 6 -15 3 -22 -9 -6 -10 -11
-13 -11 -7 0 7 -11 14 -25 16 -21 4 -23 3 -14 -9 10 -11 8 -12 -14 -4 -30 12
-67 11 -84 -1 -7 -6 -14 -4 -19 3 -5 8 -3 9 6 4 9 -5 11 -4 6 4 -4 6 -12 9
-17 5 -20 -12 -61 -15 -54 -3 5 8 2 8 -11 2 -23 -11 -265 -9 -284 2 -10 6 -12
4 -7 -9 5 -13 3 -15 -11 -8 -20 10 -32 10 -49 -1 -6 -4 -15 -2 -19 4 -5 8 -3
9 6 4 9 -5 11 -4 6 3 -5 8 -13 9 -25 2 -10 -5 -21 -6 -25 -2 -4 3 -11 0 -16
-8 -6 -9 -10 -10 -10 -3 0 8 -22 11 -72 9 -40 -1 -82 2 -92 7 -15 8 -18 6 -13
-7 5 -13 3 -15 -11 -8 -20 10 -32 10 -49 -1 -6 -4 -15 -2 -19 4 -5 8 -3 9 6 4
9 -5 11 -4 6 4 -4 6 -12 8 -18 5 -17 -11 -78 -12 -85 -1 -3 5 -9 4 -13 -3 -5
-9 -13 -9 -26 -2 -13 7 -26 7 -37 1 -12 -7 -17 -6 -17 2 0 6 -8 9 -19 6 -10
-2 -26 0 -35 5 -11 6 -16 5 -16 -4 0 -9 -3 -9 -10 2 -5 8 -10 11 -10 6 0 -5
-7 -3 -15 4 -13 10 -15 9 -15 -9z m853 -66 c-3 -9 -8 -14 -10 -11 -3 3 -2 9 2
15 9 16 15 13 8 -4z m-596 -40 c0 -8 -4 -12 -9 -9 -5 3 -6 10 -3 15 9 13 12
11 12 -6z m1502 -29 c-2 -2 -13 8 -23 22 l-19 27 24 -22 c12 -12 21 -24 18
-27z m-299 -136 c0 -5 -5 -10 -11 -10 -5 0 -7 5 -4 10 3 6 8 10 11 10 2 0 4
-4 4 -10z m-880 -20 c0 -5 -2 -10 -4 -10 -3 0 -8 5 -11 10 -3 6 -1 10 4 10 6
0 11 -4 11 -10z m240 -20 c0 -5 -5 -10 -11 -10 -5 0 -7 5 -4 10 3 6 8 10 11
10 2 0 4 -4 4 -10z"/>
</g>
</svg>
