<?xml version="1.0" encoding="UTF-8"?>
<svg width="601px" height="92px" viewBox="0 0 601 92" version="1.1" xmlns="http://www.w3.org/2000/svg" xmlns:xlink="http://www.w3.org/1999/xlink">
    <title>foodlion</title>
    <g id="Page-1" stroke="none" stroke-width="1" fill="none" fill-rule="evenodd">
        <g id="foodlion" transform="translate(0.500000, 0.600000)" fill-rule="nonzero">
            <polygon id="Path" fill="#005695" points="0 89.1 0 7 45.3 7 45.3 23.4 19.3 23.4 19.3 38 43.2 38 43.2 54.4 19.3 54.4 19.3 89.1"></polygon>
            <g id="Group" transform="translate(57.000000, 5.100000)" fill="#005695">
                <path d="M32.9,25.8 C32.9,20.8 32.5,14.8 26.1,14.8 C20,14.8 19.2,20.8 19.2,25.8 L19.2,59.5 C19.2,64.2 20,71.2 26.2,71.2 C32.4,71.2 32.9,64.2 32.9,59.5 L32.9,25.8 Z M52.2,57.8 C52.2,76.3 45.7,85.9 26.3,85.9 C6.8,85.9 -1.42108547e-14,76.3 -1.42108547e-14,57.8 L-1.42108547e-14,24.5 C-1.42108547e-14,8.7 9.4,5.68434189e-14 26.3,5.68434189e-14 C43.1,5.68434189e-14 52.2,8.8 52.2,24.5 L52.2,57.8 Z" id="Shape"></path>
                <path d="M97.1,25.8 C97.1,20.8 96.7,14.8 90.3,14.8 C84.2,14.8 83.4,20.8 83.4,25.8 L83.4,59.5 C83.4,64.2 84.2,71.2 90.4,71.2 C96.6,71.2 97.1,64.2 97.1,59.5 L97.1,25.8 L97.1,25.8 Z M116.3,57.8 C116.3,76.3 109.8,85.9 90.4,85.9 C70.9,85.9 64.2,76.3 64.2,57.8 L64.2,24.5 C64.2,8.7 73.6,5.68434189e-14 90.4,5.68434189e-14 C107.3,5.68434189e-14 116.3,8.8 116.3,24.5 L116.3,57.8 Z" id="Shape"></path>
                <path d="M148.1,69.2 C161,70.1 161.1,64.8 160.8,53.9 L160.8,27.1 C160.7,17.5 157.5,16.9 148.1,16.7 L148.1,69.2 Z M128.9,84 L128.9,2 L149.8,2 C156.8,2 165.2,2.2 171.5,5.8 C178.9,10.2 180.1,18.1 180.1,26 L180.1,62.4 C180,70.6 177.5,76.6 171.9,80.1 C166.9,83.4 160.7,83.9 154.8,83.9 L128.9,83.9 L128.9,84 Z" id="Shape"></path>
            </g>
            <polygon id="Path" fill="#005695" points="398.3 89.1 398.3 7 417.6 7 417.6 72.7 441.1 72.7 441.1 89.1"></polygon>
            <rect id="Rectangle" fill="#005695" x="451.7" y="7" width="19.3" height="82"></rect>
            <path d="M517.1,30.9 C517.1,25.9 516.7,19.9 510.3,19.9 C504.2,19.9 503.4,25.9 503.4,30.9 L503.4,64.6 C503.4,69.3 504.2,76.3 510.4,76.3 C516.6,76.3 517.1,69.3 517.1,64.6 L517.1,30.9 L517.1,30.9 Z M536.4,62.9 C536.4,81.4 530,91 510.5,91 C491,91 484.2,81.4 484.2,62.9 L484.2,29.6 C484.2,13.8 493.6,5.1 510.5,5.1 C527.4,5.1 536.4,13.9 536.4,29.6 L536.4,62.9 Z" id="Shape" fill="#005695"></path>
            <polygon id="Path" fill="#005695" points="565.3 43.1 565.1 43.3 566.9 89.1 548.6 89.1 548.6 7 568.4 7 583.3 52.9 583.6 52.9 581.8 7 600 7 600 89.1 580.3 89.1"></polygon>
            <path d="M272,13.6 C269.9,14.2 266.6,14.5 264.6,15.6 C267.4,15.6 270.5,15.8 273.2,15.4 C272.7,14.7 272.9,13.7 272,13.6 M363.1,36.8 C363,34.7 363.3,31.4 362.7,29.4 L314.7,29.4 C312,21 312.5,12.2 314.1,3.5 L374.2,3.5 L374.2,16.7 L365.4,9.3 C350.4,8.8 336.3,9.5 321.2,9.3 C319,13.3 319.1,17.2 320,21.3 L321.5,22.3 L366.3,22.5 C368.3,24.6 370.8,24.2 373,26.3 C374.6,38.6 371.8,51.6 377.2,62.2 C378.7,66.9 381.5,72.6 380.4,77.6 L376,90.5 L354.8,90.5 L357.5,83.8 L364.2,82.1 L367.8,76.4 L358.7,68.2 C354.2,73.1 350.5,77.7 346.6,82.9 L345.7,90.5 L323,90.5 C323.1,88.5 323.7,86.1 324.8,84.1 L331.2,82 C336.4,72.5 342.4,65.3 346.5,55.5 C339.1,58.2 331.6,62 324.2,65.2 L305.1,65 L299.2,75.8 C300.4,80.8 308.6,84.3 303.9,90.3 L280.1,90.5 L282.2,84.6 C284.3,83.9 286.2,82.8 288.1,81.2 C286.3,77 284.5,72.7 282.4,68.8 C278.5,73.6 272.7,79.1 268.9,84.6 L270.6,90.5 L249.7,90.5 C251.2,86.8 251.3,81.8 256.5,81.2 C259.8,76.8 263,72.1 265.6,67.6 C264.3,63.8 263,60 261.6,56.2 C259,56.2 257.3,58.2 254.7,59.2 C258.9,50 262.1,40.5 265,30.9 C263,28.6 261.4,27.1 260.1,24.1 C260.6,23 261.1,21.8 262.1,20.9 C264.9,21.8 267.6,23.9 269.8,25.6 C271.5,23.9 272.4,21.8 274.2,20 L273.3,19.5 L258,19.5 C257.3,20.1 256.9,21.1 257.1,22.1 C255.6,22.7 253.9,22.4 252.3,22.5 L253.2,16 C256.3,16.4 259.1,15.4 261.8,15.6 C262,12 259,9.7 258.9,5.9 L272.2,5.9 C272.9,5.1 272.9,3.7 273.9,3.3 C283.1,3.9 293.3,3.8 301.4,0 L303.1,0.4 L300.4,8.9 C301.3,10 302.4,8.3 303.3,8.1 C305.5,18.1 304,27.8 305.8,36.7 L363.1,36.8 Z" id="Shape" fill="#000000"></path>
            <path d="M382.2,87.4 L382.5,87.4 C382.9,87.4 383,87 383,86.6 C383,86.1 382.8,85.9 382.5,85.9 L382.2,85.9 L382.2,87.4 Z M381.4,86.2 C381.4,85.9 381.4,85.9 381,85.9 L381,85.7 L382.7,85.7 C383.3,85.7 383.8,86 383.8,86.6 C383.8,87 383.5,87.4 383.1,87.5 L383.8,88.5 C384,88.8 384.1,88.9 384.3,88.9 L384.3,89.1 L383.5,89.1 C383.3,89.1 383.2,88.9 382.9,88.4 L382.4,87.6 L382.3,87.6 L382.3,88.6 C382.3,88.9 382.3,88.9 382.7,88.9 L382.7,89.1 L381.1,89.1 L381.1,88.9 C381.5,88.9 381.5,88.8 381.5,88.6 L381.5,86.2 L381.4,86.2 Z M382.5,90.1 C383.9,90.1 385,89 385,87.5 C385,86 383.9,84.9 382.5,84.9 C381.1,84.9 380,86 380,87.5 C380,89 381.1,90.1 382.5,90.1 M382.5,84.3 C384.3,84.3 385.7,85.7 385.7,87.5 C385.7,89.3 384.3,90.7 382.5,90.7 C380.7,90.7 379.3,89.3 379.3,87.5 C379.4,85.7 380.8,84.3 382.5,84.3" id="Shape" fill="#005695"></path>
        </g>
    </g>
</svg>