<svg xmlns="http://www.w3.org/2000/svg" width="609" height="222" viewBox="0 0 6089 2220">
  <path fill="#64433d" d="M1127 1637c-21 0-68-14-75-25a1690 1690 0 0 1-125-334c-3-12-10-12-17 1a1566 1566 0 0 1-182 307c-13 16-70 0-82-20-36-60-130-255-164-342-6-13-14-7-16 5-37 162-138 480-160 480-18 0-50-10-60-24-7-12-10-40-6-52a4921 4921 0 0 0 160-567c2-10 0-19-4-33-6-28-46-113-46-133s44-55 62-55c15 0 57 5 60 18 45 164 170 465 230 559 4 8 10 8 16 2 38-42 140-238 160-337 2-13-12-64-12-80 0-12 33-22 59-22 32 0 60 17 62 36 13 160 119 466 170 567 7 14-10 48-29 48m448-338c-4-8-11-8-15 4-20 46-75 147-95 179-6 9-3 15 7 14a790 790 0 0 0 144-37c12-2 15-10 12-20-10-36-43-120-53-140m280 495c-15 0-40-10-47-18a2694 2694 0 0 1-125-206c-2-7-10-12-17-12-62 0-237 40-282 72a820 820 0 0 0-70 64c-22 27-78 40-89 40-27 0-52-42-52-62 0-35 110-88 157-148 92-124 181-314 181-366 0-36-23-114-32-145-3-16 38-46 68-52 10-2 53 4 55 20 10 52 52 214 126 390a1250 1250 0 0 0 200 349c23 20-39 74-73 74m970-739c0 14-10 37-11 83-3 50-4 198-6 303-1 98-13 210-25 236-9 18-43 46-70 46-11 0-36-36-36-63s21-91 21-304c0-156-7-250-7-289 0-29 66-63 83-63s50 32 50 50v1zm440 223c-3-8-10-8-14 4-20 46-75 147-95 179-6 9-3 15 7 14 33-4 118-25 144-37 12-3 14-10 12-20a1050 1050 0 0 0-54-140m280 494c-14 0-40-10-46-17a2715 2715 0 0 1-125-206 20 20 0 0 0-17-12 820 820 0 0 0-283 72c-13 10-58 50-69 63-22 28-78 41-90 41-27 0-52-42-52-62 0-35 111-88 158-148 92-124 181-314 181-366 0-36-24-113-32-145-4-16 38-46 68-51 10-3 52 4 55 20a2310 2310 0 0 0 126 389 1251 1251 0 0 0 200 349c23 20-39 73-73 73m826-729c0 49-6 128-7 242-2 82-8 258-17 306-3 11-54 55-65 44a3085 3085 0 0 1-392-431c-10-15-15-10-18 7-15 132-60 388-84 450-11 24-52 53-74 53-15 0-45-20-40-36a4661 4661 0 0 0 105-596c0-17-2-26-20-51-40-53-73-101-74-117-1-23 43-60 73-60 10 0 46 15 53 27 47 72 140 216 217 315 80 100 170 201 207 234 6 6 13 3 15-10 4-28 6-107 7-160 0-93-4-178-7-246-1-10 31-28 44-28 38 0 77 36 77 56zm630 298c0-97-51-180-112-220a222 222 0 0 0-86-25c-25 0-66 9-93 22a252 252 0 0 0-118 207c0 55 18 104 48 148 33 53 107 100 176 100 90 0 185-120 185-231v-2zm124-36c0 205-142 384-343 384-162 0-313-175-313-342a440 440 0 0 1 107-267 357 357 0 0 1 149-94c17-4 63-14 78-14a360 360 0 0 1 180 55 406 406 0 0 1 142 277zm113-140c-18 17-68 0-58-23 19-46 62-158 74-185 5-15 25-21 33-21 20 0 48 31 40 50a1500 1500 0 0 1-90 179m433 303c0 48-15 117-53 167-50 68-136 128-166 128-56 0-92-32-92-51 0-7 13-37 22-38 114-30 170-98 170-174 0-46-21-91-69-149a531 531 0 0 1-87-147 350 350 0 0 1 12-168c33-93 140-172 181-172 22 0 61 22 73 46 2 6-5 45-13 46-81 16-140 80-140 147 0 50 7 93 70 160 85 95 92 146 92 204v1zm-3472-127s-39 39 6 84l32-30-38-54zm1771 440c-172 139-476 162-476 162a1227 1227 0 0 1-1185-577l14-11c20-20 75-52 100-90a140 140 0 0 0 20-78c0-33-24-73-80-110-57-38-245-128-307-127-30 1-64 33-63 44 0 15 20 53 33 54a730 730 0 0 1 266 113 72 72 0 0 1 30 57c0 15-5 27-14 38-23 30-68 63-103 82-20 12-14 28-12 48 2 13 9 20 12 27h6a50 50 0 0 0-8 8c710 929 1484 580 1578 536a704 704 0 0 0 240-178c-10-36-48 0-50 2zm-1821-630c0-21-40-42-54-42-30 2-67 31-66 44 0 48-3 135-10 247-9 110-21 240-34 286-1 10 22 30 30 30 24-1 74-40 83-63 19-53 34-199 40-302 7-87 12-160 11-199v-1zm3600 522a50 50 0 0 0 24 7c15 0 23-8 23-19 0-10-6-16-20-21-18-6-30-16-30-30 0-18 15-30 36-30 10 0 20 2 24 5l-4 11a40 40 0 0 0-20-5c-15 0-21 10-21 16 0 10 7 15 22 21 18 7 27 16 27 32 0 17-12 31-38 31-10 0-22-3-28-7l4-11zm172-30l-2-48c-4 13-8 27-14 41l-19 53h-10l-18-52-13-42-2 48-3 47h-13l7-109h18l19 53a520 520 0 0 1 10 36h1l12-36 19-53h18l7 109h-14l-3-48z"/>
  <path fill="#648326" d="M5110 113.9c-63.8-.4-126.7 7.7-185 28h1S4576.8 256 4582.3 628.7C4454 730.9 4387.9 816.7 4385 820c-63 68-11 113-13 111 26 24 40 8 44 5a2399.5 2399.5 0 0 1 216.4-214.1C4716 776 4905.2 868 5136 784c2 0 268-36 542-508 0 0-291.8-160.4-568-162.1zm57.4 98.2c136.5 1 261 47.7 315.4 71.4A1595.7 1595.7 0 0 0 4703 541.3c41.2-227.2 309-307.3 309-307.3a505 505 0 0 1 155.4-22zm338.3 96.7C5353.7 596.6 5127 660 5129 660h-1a430 430 0 0 1-395.8-19.5c344.6-264.2 644.7-320.2 773.5-331.7z"/>
</svg>
