<?xml version="1.0" encoding="UTF-8"?>
<svg xmlns="http://www.w3.org/2000/svg" xmlns:xlink="http://www.w3.org/1999/xlink" width="1326.06pt" height="319.25pt" viewBox="0 0 1326.06 319.25" version="1.1">
<defs>
<clipPath id="clip1">
  <path d="M 0 279 L 1269 279 L 1269 319.25 L 0 319.25 Z M 0 279 "/>
</clipPath>
<clipPath id="clip2">
  <path d="M 1292 286 L 1326.058594 286 L 1326.058594 319.25 L 1292 319.25 Z M 1292 286 "/>
</clipPath>
</defs>
<g id="surface1">
<path style=" stroke:none;fill-rule:evenodd;fill:rgb(17.298889%,29.798889%,61.199951%);fill-opacity:1;" d="M 1062.460938 205 C 1041.921875 222.558594 985.863281 234.679688 977.457031 198 C 958.253906 218.007813 895.144531 237.753906 880.457031 200 C 866.222656 214.039063 808.210938 249.539063 816.457031 196 C 802.894531 203.941406 780.964844 228.011719 753.457031 223 C 744.902344 221.441406 739.859375 215.640625 735.457031 208 C 718.832031 218.367188 659.144531 240.34375 668.457031 195 C 656.015625 209.878906 596.066406 245.167969 586.457031 201 C 573.234375 208.929688 551.714844 231.070313 527.457031 225 C 515.214844 221.9375 511.371094 204.761719 516.457031 189 C 501.695313 189.339844 502.15625 216.191406 488.457031 222 C 476.492188 227.074219 455.667969 221.910156 441.457031 221 C 442.199219 208.078125 450.234375 202.445313 452.457031 191 C 436.304688 197.601563 403.09375 235.871094 378.457031 220 C 372.847656 216.386719 370.597656 207.722656 371.457031 195 C 362.070313 204.980469 312.816406 242.988281 293.457031 214 C 281.148438 195.566406 297.933594 163.648438 311.457031 148 C 325.320313 131.957031 350.246094 112.871094 371.457031 118 C 376.742188 119.277344 381.757813 125.382813 382.457031 132 C 387.558594 122.128906 419.476563 115.332031 430.457031 128 C 428.441406 144.355469 416.703125 159.554688 417.457031 182 C 444.871094 172.082031 461.398438 151.273438 473.457031 126 C 483.070313 121.65625 504.128906 119.5625 514.457031 125 C 515.851563 136.300781 507.101563 145.46875 505.457031 157 C 518.703125 148.355469 534.753906 119.984375 561.457031 125 C 587.101563 129.816406 572.160156 158.511719 568.457031 180 C 588.964844 187.890625 595.246094 166.742188 604.457031 155 C 613.878906 142.984375 649.113281 103.542969 674.457031 120 C 678.230469 122.449219 680.476563 125.988281 680.457031 134 C 691.46875 119.683594 689.09375 97.988281 700.457031 85 C 710.226563 73.832031 731.019531 74.851563 746.457031 71 C 738.996094 109.5625 721.410156 146.605469 711.457031 186 C 717.265625 189.242188 728.679688 189.421875 734.457031 185 C 738.816406 181.664063 739.171875 174.605469 741.457031 170 C 751.726563 149.300781 778.972656 121.265625 802.457031 118 C 814.816406 116.28125 825.714844 119.246094 826.457031 132 C 833.171875 119.460938 864.101563 118.902344 875.457031 128 C 873.613281 148.042969 857.617188 163.859375 862.457031 184 C 884.429688 186.214844 886.953125 155.503906 894.457031 139 C 907.0625 111.269531 937.394531 62.210938 969.457031 58 C 985.101563 55.945313 997.632813 66.835938 995.457031 86 C 991.535156 120.503906 953.421875 144.585938 933.457031 165 C 926.304688 204.253906 969.632813 180.558594 979.457031 169 C 984.523438 148.425781 996.148438 127.007813 1009.460938 107 C 1021.738281 88.53125 1037.058594 67.75 1055.460938 61 C 1076.308594 53.351563 1096.308594 66.820313 1089.460938 90 C 1080.390625 120.652344 1049.820313 149.742188 1028.460938 166 C 1024.261719 204.609375 1056.621094 183.105469 1070.460938 172 C 1098.929688 149.148438 1127.320313 118.199219 1145.460938 91 C 1158.589844 91.203125 1173.058594 90.066406 1183.460938 93 C 1181.621094 105.054688 1169.410156 109.011719 1168.460938 122 C 1167.71875 131.988281 1175.058594 143.292969 1174.460938 155 C 1173.910156 165.503906 1169.53125 170.496094 1166.460938 181 C 1181.261719 176.804688 1186.960938 163.503906 1201.460938 159 C 1197.960938 173.503906 1192.648438 186.195313 1189.460938 201 C 1160.890625 220.925781 1090.5 235.636719 1062.460938 205 M 214.457031 223 C 181.617188 223.035156 160.222656 201.925781 161.457031 164 C 154.082031 179.625 147.003906 195.550781 143.457031 215 C 127.730469 225.644531 92.976563 226.859375 75.457031 217 C 80.328125 184.539063 90.917969 157.792969 101.457031 131 C 96.195313 127.722656 88.5625 132.960938 83.457031 130 C 82.085938 99.914063 96.050781 76.628906 107.457031 56 C 149.882813 44.824219 256.226563 32.746094 291.457031 60 C 322.894531 84.316406 277.636719 125.753906 258.457031 138 C 252.851563 141.578125 246.769531 143.066406 241.457031 147 C 247.992188 171.984375 283.726563 147.328125 298.457031 143 C 291.0625 180.621094 261.652344 222.945313 214.457031 223 M 0 264 L 1268.5 264 L 1268.5 0 L 0 0 Z M 0 264 "/>
<path style=" stroke:none;fill-rule:evenodd;fill:rgb(100%,100%,100%);fill-opacity:1;" d="M 226.457031 124 C 227.089844 109.636719 194.042969 108.875 178.457031 113 C 174.480469 120.355469 171.621094 128.835938 169.457031 138 C 188.070313 141.15625 225.867188 137.449219 226.457031 124 M 241.457031 147 C 247.992188 171.984375 283.726563 147.328125 298.457031 143 C 291.0625 180.621094 261.652344 222.945313 214.457031 223 C 181.617188 223.035156 160.21875 201.925781 161.457031 164 C 154.082031 179.625 147.003906 195.550781 143.457031 215 C 127.730469 225.644531 92.976563 226.859375 75.457031 217 C 80.328125 184.539063 90.917969 157.792969 101.457031 131 C 96.195313 127.722656 88.5625 132.960938 83.457031 130 C 82.085938 99.914063 96.050781 76.628906 107.457031 56 C 149.882813 44.824219 256.226563 32.746094 291.457031 60 C 322.894531 84.316406 277.636719 125.753906 258.457031 138 C 252.851563 141.578125 246.769531 143.066406 241.457031 147 "/>
<path style=" stroke:none;fill-rule:evenodd;fill:rgb(100%,100%,100%);fill-opacity:1;" d="M 813.457031 163 C 809.1875 149.203125 776.25 169.046875 784.457031 185 C 797.378906 191.59375 816.898438 174.117188 813.457031 163 M 636.457031 185 C 651.324219 190.355469 663.679688 177.261719 665.457031 163 C 654.046875 150.570313 632.414063 169.359375 636.457031 185 M 340.457031 184 C 355.898438 190.125 370.378906 174.515625 368.457031 160 C 355.257813 153.066406 337.3125 168.332031 340.457031 184 M 1115.460938 156 C 1107.890625 167.101563 1096.75 174.625 1088.460938 185 C 1107.320313 203.503906 1136.699219 168.789063 1115.460938 156 M 1072.460938 90 C 1071.679688 89.777344 1071.289063 89.164063 1071.460938 88 C 1069.550781 87.570313 1068.941406 85.847656 1066.460938 86 C 1048.378906 98.59375 1039.101563 119.976563 1029.460938 141 C 1048.390625 128.59375 1066.628906 115.507813 1072.460938 90 M 970.457031 86 C 952.503906 98.714844 942.535156 119.410156 933.457031 141 C 951.242188 127.769531 974.890625 115.117188 974.457031 87 C 972.566406 87.222656 972.25 85.871094 970.457031 86 M 1028.460938 166 C 1024.261719 204.609375 1056.621094 183.105469 1070.460938 172 C 1098.929688 149.148438 1127.320313 118.199219 1145.460938 91 C 1158.589844 91.203125 1173.058594 90.066406 1183.460938 93 C 1181.621094 105.054688 1169.410156 109.011719 1168.460938 122 C 1167.71875 131.988281 1175.058594 143.292969 1174.460938 155 C 1173.910156 165.503906 1169.53125 170.496094 1166.460938 181 C 1181.261719 176.804688 1186.960938 163.503906 1201.460938 159 C 1197.960938 173.503906 1192.648438 186.195313 1189.460938 201 C 1160.890625 220.925781 1090.5 235.636719 1062.460938 205 C 1041.921875 222.558594 985.863281 234.679688 977.457031 198 C 958.253906 218.007813 895.144531 237.753906 880.457031 200 C 866.222656 214.039063 808.210938 249.539063 816.457031 196 C 802.894531 203.941406 780.964844 228.011719 753.457031 223 C 744.902344 221.441406 739.859375 215.640625 735.457031 208 C 718.832031 218.367188 659.144531 240.34375 668.457031 195 C 656.015625 209.878906 596.066406 245.167969 586.457031 201 C 573.234375 208.929688 551.714844 231.070313 527.457031 225 C 515.214844 221.9375 511.371094 204.761719 516.457031 189 C 501.695313 189.339844 502.15625 216.191406 488.457031 222 C 476.492188 227.074219 455.667969 221.910156 441.457031 221 C 442.199219 208.078125 450.234375 202.445313 452.457031 191 C 436.304688 197.601563 403.09375 235.871094 378.457031 220 C 372.847656 216.386719 370.597656 207.722656 371.457031 195 C 362.070313 204.980469 312.816406 242.988281 293.457031 214 C 281.148438 195.566406 297.933594 163.648438 311.457031 148 C 325.320313 131.957031 350.246094 112.871094 371.457031 118 C 376.742188 119.277344 381.757813 125.382813 382.457031 132 C 387.558594 122.128906 419.476563 115.332031 430.457031 128 C 428.441406 144.355469 416.703125 159.554688 417.457031 182 C 444.871094 172.082031 461.398438 151.273438 473.457031 126 C 483.070313 121.65625 504.128906 119.5625 514.457031 125 C 515.851563 136.300781 507.101563 145.46875 505.457031 157 C 518.703125 148.355469 534.753906 119.984375 561.457031 125 C 587.101563 129.816406 572.160156 158.511719 568.457031 180 C 588.964844 187.890625 595.246094 166.742188 604.457031 155 C 613.878906 142.984375 649.113281 103.542969 674.457031 120 C 678.230469 122.449219 680.476563 125.988281 680.457031 134 C 691.46875 119.683594 689.09375 97.988281 700.457031 85 C 710.226563 73.832031 731.019531 74.851563 746.457031 71 C 738.996094 109.5625 721.410156 146.605469 711.457031 186 C 717.265625 189.242188 728.679688 189.421875 734.457031 185 C 738.816406 181.664063 739.171875 174.605469 741.457031 170 C 751.726563 149.300781 778.972656 121.265625 802.457031 118 C 814.816406 116.28125 825.714844 119.246094 826.457031 132 C 833.171875 119.460938 864.101563 118.902344 875.457031 128 C 873.613281 148.042969 857.617188 163.859375 862.457031 184 C 884.429688 186.214844 886.953125 155.503906 894.457031 139 C 907.0625 111.269531 937.394531 62.210938 969.457031 58 C 985.101563 55.945313 997.632813 66.835938 995.457031 86 C 991.535156 120.503906 953.421875 144.585938 933.457031 165 C 926.304688 204.253906 969.632813 180.558594 979.457031 169 C 984.523438 148.425781 996.148438 127.007813 1009.460938 107 C 1021.738281 88.53125 1037.058594 67.75 1055.460938 61 C 1076.308594 53.351563 1096.308594 66.820313 1089.460938 90 C 1080.390625 120.652344 1049.820313 149.742188 1028.460938 166 "/>
<path style=" stroke:none;fill-rule:evenodd;fill:rgb(17.298889%,29.798889%,61.199951%);fill-opacity:1;" d="M 974.457031 87 C 974.890625 115.117188 951.242188 127.769531 933.457031 141 C 942.535156 119.410156 952.503906 98.714844 970.457031 86 C 972.25 85.871094 972.566406 87.222656 974.457031 87 "/>
<path style=" stroke:none;fill-rule:evenodd;fill:rgb(17.298889%,29.798889%,61.199951%);fill-opacity:1;" d="M 1029.460938 141 C 1039.101563 119.976563 1048.378906 98.59375 1066.460938 86 C 1068.941406 85.847656 1069.550781 87.570313 1071.460938 88 C 1071.289063 89.164063 1071.679688 89.777344 1072.460938 90 C 1066.628906 115.507813 1048.390625 128.59375 1029.460938 141 "/>
<path style=" stroke:none;fill-rule:evenodd;fill:rgb(17.298889%,29.798889%,61.199951%);fill-opacity:1;" d="M 169.457031 138 C 171.621094 128.835938 174.480469 120.355469 178.457031 113 C 194.042969 108.875 227.089844 109.636719 226.457031 124 C 225.867188 137.449219 188.070313 141.15625 169.457031 138 "/>
<path style=" stroke:none;fill-rule:evenodd;fill:rgb(17.298889%,29.798889%,61.199951%);fill-opacity:1;" d="M 1088.460938 185 C 1096.75 174.625 1107.890625 167.101563 1115.460938 156 C 1136.699219 168.789063 1107.320313 203.503906 1088.460938 185 "/>
<path style=" stroke:none;fill-rule:evenodd;fill:rgb(17.298889%,29.798889%,61.199951%);fill-opacity:1;" d="M 368.457031 160 C 370.378906 174.515625 355.898438 190.125 340.457031 184 C 337.3125 168.332031 355.257813 153.066406 368.457031 160 "/>
<path style=" stroke:none;fill-rule:evenodd;fill:rgb(17.298889%,29.798889%,61.199951%);fill-opacity:1;" d="M 665.457031 163 C 663.679688 177.261719 651.324219 190.355469 636.457031 185 C 632.414063 169.359375 654.046875 150.570313 665.457031 163 "/>
<path style=" stroke:none;fill-rule:evenodd;fill:rgb(17.298889%,29.798889%,61.199951%);fill-opacity:1;" d="M 784.457031 185 C 776.25 169.046875 809.1875 149.203125 813.457031 163 C 816.898438 174.117188 797.378906 191.59375 784.457031 185 "/>
<g clip-path="url(#clip1)" clip-rule="nonzero">
<path style=" stroke:none;fill-rule:evenodd;fill:rgb(76.499939%,23.899841%,25.099182%);fill-opacity:1;" d="M 0 279 L 0 318.015625 C 419.894531 319.664063 848.632813 319.660156 1268.511719 318.011719 L 1268.511719 279 "/>
</g>
<g clip-path="url(#clip2)" clip-rule="nonzero">
<path style=" stroke:none;fill-rule:nonzero;fill:rgb(17.298889%,29.798889%,61.199951%);fill-opacity:1;" d="M 1306.851563 302.132813 L 1308.640625 302.132813 C 1310.730469 302.132813 1312.421875 301.433594 1312.421875 299.742188 C 1312.421875 298.25 1311.328125 297.253906 1308.941406 297.253906 C 1307.941406 297.253906 1307.25 297.351563 1306.851563 297.453125 Z M 1306.75 311.285156 L 1302.96875 311.285156 L 1302.96875 294.964844 C 1304.460938 294.765625 1306.550781 294.46875 1309.238281 294.46875 C 1312.320313 294.46875 1313.71875 294.964844 1314.808594 295.761719 C 1315.808594 296.457031 1316.5 297.652344 1316.5 299.242188 C 1316.5 301.234375 1315.011719 302.527344 1313.121094 303.125 L 1313.121094 303.324219 C 1314.710938 303.820313 1315.511719 305.117188 1316 307.304688 C 1316.5 309.792969 1316.898438 310.691406 1317.199219 311.285156 L 1313.21875 311.285156 C 1312.71875 310.691406 1312.421875 309.296875 1311.921875 307.304688 C 1311.621094 305.613281 1310.628906 304.816406 1308.539063 304.816406 L 1306.75 304.816406 Z M 1296.699219 302.828125 C 1296.699219 310.09375 1302.171875 315.863281 1309.441406 315.863281 C 1316.5 315.964844 1321.878906 310.09375 1321.878906 302.925781 C 1321.878906 295.660156 1316.5 289.789063 1309.238281 289.789063 C 1302.171875 289.789063 1296.699219 295.660156 1296.699219 302.828125 M 1326.058594 302.828125 C 1326.058594 311.984375 1318.691406 319.25 1309.339844 319.25 C 1299.980469 319.25 1292.519531 311.984375 1292.519531 302.828125 C 1292.519531 293.671875 1299.980469 286.503906 1309.441406 286.503906 C 1318.691406 286.503906 1326.058594 293.671875 1326.058594 302.828125 "/>
</g>
</g>
</svg>
