<?xml version="1.0" encoding="UTF-8"?>
<svg width="478px" height="478px" viewBox="0 0 478 478" version="1.1" xmlns="http://www.w3.org/2000/svg" xmlns:xlink="http://www.w3.org/1999/xlink">
    <title>noun_Ticket_2144400</title>
    <g id="Page-1" stroke="none" stroke-width="1" fill="none" fill-rule="evenodd">
        <g id="noun_Ticket_2144400" fill="#FFFFFF" fill-rule="nonzero">
            <path d="M215.3,14.4 C206,5.1 193.7,0 180.7,0 C167.7,0 155.3,5.1 146.1,14.4 L118.7,41.8 C115.5,45 115.2,50 117.9,53.6 C131.5,71.8 129.7,97.6 113.6,113.6 C97.6,129.6 71.7,131.5 53.6,117.9 C50,115.2 45,115.6 41.8,118.7 L14.4,146 C5.1,155.3 0,167.6 0,180.6 C0,193.6 5.1,206 14.4,215.2 L262.7,463.5 C272,472.8 284.3,477.9 297.3,477.9 C310.3,477.9 322.7,472.8 331.9,463.5 L463.6,332 C472.9,322.7 478,310.4 478,297.4 C478,284.4 472.9,272 463.6,262.8 L215.3,14.4 Z M18,180.7 C18,172.4 21.2,164.6 27.1,158.8 L49.3,136.6 C73.9,150.6 105.8,146.8 126.2,126.3 C146.7,105.8 150.5,74 136.5,49.4 L158.7,27.2 C164.6,21.3 172.3,18.1 180.6,18.1 C188.9,18.1 196.7,21.3 202.5,27.2 L414.3,239 L238.3,414 L27.1,202.6 C21.2,196.7 18,188.9 18,180.7 Z M450.9,319.3 L319.3,450.9 C313.4,456.8 305.7,460 297.4,460 C289.1,460 281.3,456.8 275.5,450.9 L251.3,426.7 L427.3,251.7 L451.1,275.5 C457,281.4 460.2,289.1 460.2,297.4 C460.2,305.7 456.8,313.4 450.9,319.3 Z" id="Shape"></path>
        </g>
    </g>
</svg>