<?xml version="1.0" encoding="UTF-8"?>
<svg width="65px" height="60px" viewBox="0 0 65 60" version="1.1" xmlns="http://www.w3.org/2000/svg" xmlns:xlink="http://www.w3.org/1999/xlink">
    <title>noun_shopping_3547989</title>
    <g id="Page-1" stroke="none" stroke-width="1" fill="none" fill-rule="evenodd">
        <g id="noun_shopping_3547989" fill="#FFFFFF" fill-rule="nonzero">
            <path d="M61,12.0000021 L16.86,12.0000021 L15.59,5.63000417 C14.9363414,2.35472728 12.0598655,-0.00255934931 8.72,2.08541176e-06 L0,2.08541176e-06 L0,6.00000209 L8.72,6.00000209 C9.20276076,5.99026847 9.62352637,6.32688096 9.72,6.80000417 L15.79,37.1500042 C16.8140926,42.2885276 21.3204279,45.991505 26.56,46.0000021 L50.06,46.0000021 C55.5438998,46.0039339 60.2009896,41.9853848 61,36.5600042 L64,15.4300042 C64.125625,14.5629305 63.8659352,13.6842681 63.2891377,13.0247963 C62.7123402,12.3653245 61.8760802,11.9909509 61,12.0000021 Z M55,35.7100042 C54.6442077,38.1911082 52.5063561,40.0253848 50,40.0000042 L26.56,40.0000042 C24.1836569,40.0004892 22.1352686,38.3283354 21.66,36.0000042 L18.06,18.0000042 L57.54,18.0000042 L55,35.7100042 Z" id="Shape"></path>
            <circle id="Oval" cx="55" cy="56.0000042" r="4"></circle>
            <circle id="Oval" cx="21" cy="56.0000042" r="4"></circle>
        </g>
    </g>
</svg>