<?xml version="1.0" encoding="UTF-8"?>
<svg width="12px" height="21px" viewBox="0 0 12 21" version="1.1" xmlns="http://www.w3.org/2000/svg" xmlns:xlink="http://www.w3.org/1999/xlink">
    <title>noun_Phone_4234105</title>
    <g id="Page-1" stroke="none" stroke-width="1" fill="none" fill-rule="evenodd">
        <g id="noun_Phone_4234105" fill="#FFFFFF" fill-rule="nonzero">
            <path d="M2.5,21 L9.5,21 C10.879,21 12,19.878 12,18.5 L12,2.5 C12,1.122 10.879,0 9.5,0 L2.5,0 C1.121,0 0,1.122 0,2.5 L0,18.5 C0,19.878 1.121,21 2.5,21 Z M1,2.5 C1,1.673 1.673,1 2.5,1 L9.5,1 C10.327,1 11,1.673 11,2.5 L11,18.5 C11,19.327 10.327,20 9.5,20 L2.5,20 C1.673,20 1,19.327 1,18.5 L1,2.5 Z" id="Shape"></path>
            <path d="M7,18 L5,18 C4.724,18 4.5,18.224 4.5,18.5 C4.5,18.776 4.724,19 5,19 L7,19 C7.276,19 7.5,18.776 7.5,18.5 C7.5,18.224 7.276,18 7,18 Z" id="Path"></path>
            <path d="M3,3 L9,3 C9.276,3 9.5,2.776 9.5,2.5 C9.5,2.224 9.276,2 9,2 L3,2 C2.724,2 2.5,2.224 2.5,2.5 C2.5,2.776 2.724,3 3,3 Z" id="Path"></path>
        </g>
    </g>
</svg>