<?xml version="1.0" encoding="UTF-8"?>
<svg width="46px" height="45px" viewBox="0 0 46 45" version="1.1" xmlns="http://www.w3.org/2000/svg" xmlns:xlink="http://www.w3.org/1999/xlink">
    <title>noun_sun_3219951</title>
    <g id="Page-1" stroke="none" stroke-width="1" fill="none" fill-rule="evenodd">
        <g id="noun_sun_3219951" transform="translate(0.831050, 0.000000)" fill="#FFFFFF" fill-rule="nonzero">
            <path d="M22.16895,35.16114 C14.9935616,35.16114 9.17676,29.3443384 9.17676,22.16895 C9.17676,14.9935616 14.9935616,9.17676 22.16895,9.17676 C29.3443384,9.17676 35.16114,14.9935616 35.16114,22.16895 C35.1531324,29.3410189 29.3410189,35.1531324 22.16895,35.16114 Z M22.16895,11.17676 C16.0981311,11.17676 11.17676,16.0981311 11.17676,22.16895 C11.17676,28.2397689 16.0981311,33.16114 22.16895,33.16114 C28.2397689,33.16114 33.16114,28.2397689 33.16114,22.16895 C33.1542294,16.1009959 28.2369041,11.1836706 22.16895,11.17676 Z" id="Shape"></path>
            <path d="M14.39454,23.16895 C13.8422553,23.16895 13.39454,22.7212347 13.39454,22.16895 C13.3999079,17.3252023 17.3252023,13.3999079 22.16895,13.39454 C22.7212347,13.39454 23.16895,13.8422553 23.16895,14.39454 C23.16895,14.9468247 22.7212347,15.39454 22.16895,15.39454 C18.4293217,15.3988219 15.3988219,18.4293217 15.39454,22.16895 C15.3945124,22.7212233 14.9468133,23.16895 14.39454,23.16895 L14.39454,23.16895 Z" id="Path"></path>
            <path d="M22.16895,7.16995 C21.6166767,7.16995 21.1689776,6.72222331 21.16895,6.16995 L21.16895,1 C21.16895,0.44771525 21.6166653,0 22.16895,0 C22.7212347,0 23.16895,0.44771525 23.16895,1 L23.16895,6.16995 C23.1689224,6.72222331 22.7212233,7.16995 22.16895,7.16995 L22.16895,7.16995 Z" id="Path"></path>
            <path d="M22.16895,44.33795 C21.6166767,44.33795 21.1689776,43.8902233 21.16895,43.33795 L21.16895,38.16795 C21.16895,37.6156653 21.6166653,37.16795 22.16895,37.16795 C22.7212347,37.16795 23.16895,37.6156653 23.16895,38.16795 L23.16895,43.33795 C23.1689224,43.8902233 22.7212233,44.33795 22.16895,44.33795 L22.16895,44.33795 Z" id="Path"></path>
            <path d="M6.16995,23.16895 L1,23.16895 C0.44771525,23.16895 0,22.7212347 0,22.16895 C0,21.6166653 0.44771525,21.16895 1,21.16895 L6.16995,21.16895 C6.72223475,21.16895 7.16995,21.6166653 7.16995,22.16895 C7.16995,22.7212347 6.72223475,23.16895 6.16995,23.16895 Z" id="Path"></path>
            <path d="M43.33795,23.16895 L38.16795,23.16895 C37.6156653,23.16895 37.16795,22.7212347 37.16795,22.16895 C37.16795,21.6166653 37.6156653,21.16895 38.16795,21.16895 L43.33795,21.16895 C43.8902347,21.16895 44.33795,21.6166653 44.33795,22.16895 C44.33795,22.7212347 43.8902347,23.16895 43.33795,23.16895 Z" id="Path"></path>
            <path d="M7.2002,38.1377007 C6.7958041,38.1376137 6.43126595,37.8939725 6.27652202,37.5203546 C6.12177809,37.1467366 6.20729208,36.7166943 6.4932,36.4307 L10.14895,32.77495 C10.4007609,32.5185359 10.7708095,32.4169829 11.1182271,32.5089499 C11.4656448,32.6009169 11.7369831,32.8722552 11.8289501,33.2196729 C11.9209171,33.5670905 11.8193641,33.9371391 11.56295,34.18895 L7.90723,37.84473 C7.71992749,38.0325785 7.46547189,38.1380165 7.2002,38.1377007 L7.2002,38.1377007 Z" id="Path"></path>
            <path d="M33.48195,11.8559507 C33.0775541,11.8558637 32.7130159,11.6122225 32.558272,11.2386046 C32.4035281,10.8649866 32.4890421,10.4349443 32.77495,10.14895 L36.43071,6.49319 C36.6833075,6.24059249 37.0514764,6.14194192 37.396531,6.23439902 C37.7415856,6.32685611 38.0111039,6.59637444 38.103561,6.94142904 C38.1960181,7.28648364 38.0973675,7.65465251 37.84477,7.90725 L34.18895,11.56295 C34.0016623,11.7508058 33.7472167,11.856255 33.48195,11.8559507 L33.48195,11.8559507 Z" id="Path"></path>
            <path d="M37.1377,38.13771 C36.8724342,38.1380006 36.6179902,38.0325521 36.4307,37.8447 L32.77495,34.18895 C32.5185359,33.9371391 32.4169829,33.5670905 32.5089499,33.2196729 C32.6009169,32.8722552 32.8722552,32.6009169 33.2196729,32.5089499 C33.5670905,32.4169829 33.9371391,32.5185359 34.18895,32.77495 L37.84471,36.43071 C38.1306179,36.7167043 38.2161319,37.1467466 38.061388,37.5203646 C37.9066441,37.8939825 37.5421059,38.1376237 37.13771,38.13771 L37.1377,38.13771 Z" id="Path"></path>
            <path d="M10.85595,11.8559507 C10.5906833,11.856255 10.3362377,11.7508058 10.14895,11.56295 L6.49317,7.90723 C6.10268814,7.51674811 6.10268815,6.8836519 6.49317003,6.49317003 C6.8836519,6.10268815 7.51674811,6.10268814 7.90723,6.49317 L11.56295,10.14895 C11.8488579,10.4349443 11.9343719,10.8649866 11.779628,11.2386046 C11.6248841,11.6122225 11.2603459,11.8558637 10.85595,11.8559507 L10.85595,11.8559507 Z" id="Path"></path>
        </g>
    </g>
</svg>