<?xml version="1.0" encoding="UTF-8"?>
<svg width="297px" height="215px" viewBox="0 0 297 215" version="1.1" xmlns="http://www.w3.org/2000/svg" xmlns:xlink="http://www.w3.org/1999/xlink">
    <title>noun_group_1743312</title>
    <g id="Page-1" stroke="none" stroke-width="1" fill="none" fill-rule="evenodd">
        <g id="noun_group_1743312" fill="#FFFFFF" fill-rule="nonzero">
            <path d="M9,156 C9,162 0,162 0,156 C1,130 23,110 48,110 L69,110 C95,110 116,130 117,156 C117,162 108,162 108,156 C107,135 90,119 69,119 L48,119 C28,119 11,135 10,156 C10,156 9,156 9,156 Z M100,105 C100,111 91,111 91,105 C92,79 113,59 138,59 L159,59 C185,59 206,79 206,105 C207,111 198,111 197,105 C197,84 180,68 159,68 L138,68 C117,68 100,84 100,105 Z M99,210 C99,216 90,216 90,210 C90,185 111,164 137,164 L158,164 C183,164 205,185 205,210 C205,216 196,216 196,210 C196,190 179,173 158,173 L137,173 C116,173 99,190 99,210 Z M190,156 C190,162 181,162 181,156 C181,130 202,110 229,110 L250,110 C276,110 297,130 297,156 C297,162 288,162 288,156 C288,135 271,119 250,119 L229,119 C207,119 190,135 190,156 Z M59,51 C74,51 87,64 87,80 C87,95 74,108 59,108 C43,108 31,95 31,80 C31,64 43,51 59,51 Z M59,60 C48,60 40,69 40,80 C40,90 48,99 59,99 C69,99 78,90 78,80 C78,69 69,60 59,60 Z M149,0 C164,0 177,12 177,29 C177,44 164,57 149,57 C133,57 120,44 120,29 C120,12 133,0 149,0 Z M149,9 C138,9 129,17 129,29 C129,39 138,48 149,48 C159,48 168,39 168,29 C168,17 159,9 149,9 Z M147,106 C163,106 176,119 176,134 C176,150 163,162 147,162 C132,162 119,150 119,134 C119,119 132,106 147,106 Z M147,115 C137,115 128,124 128,134 C128,145 137,153 147,153 C158,153 167,145 167,134 C167,124 158,115 147,115 Z M239,51 C255,51 268,64 268,80 C268,95 255,108 239,108 C224,108 210,95 210,80 C210,64 224,51 239,51 Z M239,60 C229,60 220,69 220,80 C220,90 229,99 239,99 C250,99 259,90 259,80 C259,69 250,60 239,60 Z" id="Shape"></path>
        </g>
    </g>
</svg>