<?xml version="1.0" encoding="UTF-8"?>
<svg width="25px" height="25px" viewBox="0 0 25 25" version="1.1" xmlns="http://www.w3.org/2000/svg" xmlns:xlink="http://www.w3.org/1999/xlink">
    <title>3E2F039D-27B3-4B1F-AC2D-F26632109BA4</title>
    <g id="Corp-Website" stroke="none" stroke-width="1" fill="none" fill-rule="evenodd">
        <g id="Homepage" transform="translate(-909.000000, -3136.000000)">
            <g id="NS-2" transform="translate(-5.000000, 2816.000000)">
                <g id="Group-20" transform="translate(164.000000, 77.000000)">
                    <g id="Pharmacy" transform="translate(3.000000, 210.000000)">
                        <g id="impressions" transform="translate(747.000000, 33.000000)">
                            <polygon id="Path" points="0 0 25 0 25 25 0 25"></polygon>
                            <path d="M1.04166667,12.625 C2.03721462,8.92722222 6.78936747,6.125 12.5,6.125 C18.2106325,6.125 22.9617263,8.92722222 23.9583333,12.625 C22.9627854,16.3227778 18.2106325,19.125 12.5,19.125 C6.78936747,19.125 2.03827372,16.3227778 1.04166667,12.625 Z M12.5,17.7083333 C15.4246061,17.7083333 17.7954678,15.3764831 17.7954678,12.5 C17.7954678,9.62351693 15.4246061,7.29166667 12.5,7.29166667 C9.57539386,7.29166667 7.20453215,9.62351693 7.20453215,12.5 C7.20453215,15.3764831 9.57539386,17.7083333 12.5,17.7083333 L12.5,17.7083333 Z M12.5,15.625 C10.7452363,15.625 9.32271929,14.2258898 9.32271929,12.5 C9.32271929,10.7741102 10.7452363,9.375 12.5,9.375 C14.2547637,9.375 15.6772807,10.7741102 15.6772807,12.5 C15.6772807,14.2258898 14.2547637,15.625 12.5,15.625 Z" id="Shape" fill="#9A0591" fill-rule="nonzero"></path>
                        </g>
                    </g>
                </g>
            </g>
        </g>
    </g>
</svg>