<?xml version="1.0" encoding="UTF-8"?>
<svg width="25px" height="25px" viewBox="0 0 25 25" version="1.1" xmlns="http://www.w3.org/2000/svg" xmlns:xlink="http://www.w3.org/1999/xlink">
    <title>88499F86-915F-4786-86DE-DAC066A60C7A</title>
    <g id="Corp-Website" stroke="none" stroke-width="1" fill="none" fill-rule="evenodd">
        <g id="Homepage" transform="translate(-672.000000, -3136.000000)">
            <g id="NS-2" transform="translate(-5.000000, 2816.000000)">
                <g id="Group-20" transform="translate(164.000000, 77.000000)">
                    <g id="Pharmacy" transform="translate(3.000000, 210.000000)">
                        <g id="kiosk" transform="translate(510.000000, 33.000000)">
                            <rect id="Rectangle" x="0" y="0" width="25" height="25"></rect>
                            <path d="M17.1750583,3 L7.82502353,3 C7.60650412,3.00133871 7.39742149,3.09270729 7.24297895,3.25435495 C7.08840137,3.41616967 7.00111719,3.63504987 7,3.86365018 L7,18.2574628 C7.00111899,18.486213 7.08840137,18.7050846 7.24297895,18.866758 C7.39739694,19.0285727 7.60648775,19.1199435 7.82502353,19.1211129 L10.2588235,19.1211129 L9.47507059,22 L15.5250931,22 L14.7413402,19.1212803 L17.1749765,19.121113 C17.3934959,19.1199416 17.6025785,19.0285728 17.757021,18.866758 C17.9115986,18.7051104 17.9988828,18.4862302 18,18.2574628 L18,3.86365022 C17.998881,3.63506705 17.9115986,3.4161997 17.757021,3.25435499 C17.6026031,3.09270733 17.3935123,3.0013409 17.1749765,3 L17.1750583,3 Z M16,17 L9,17 L9,5 L16,5 L16,17 Z" id="Shape" fill="#9A0591" fill-rule="nonzero"></path>
                        </g>
                    </g>
                </g>
            </g>
        </g>
    </g>
</svg>