<?xml version="1.0" encoding="UTF-8"?>
<svg width="25px" height="25px" viewBox="0 0 25 25" version="1.1" xmlns="http://www.w3.org/2000/svg" xmlns:xlink="http://www.w3.org/1999/xlink">
    <title>1DBFBE70-0254-45AF-A19D-91F2C3931A6F</title>
    <g id="Corp-Website" stroke="none" stroke-width="1" fill="none" fill-rule="evenodd">
        <g id="Homepage" transform="translate(-495.000000, -3136.000000)">
            <g id="NS-2" transform="translate(-5.000000, 2816.000000)">
                <g id="Group-20" transform="translate(164.000000, 77.000000)">
                    <g id="Pharmacy" transform="translate(3.000000, 210.000000)">
                        <g id="locations" transform="translate(333.000000, 33.000000)">
                            <polygon id="Path" points="0 0 25 0 25 25 0 25"></polygon>
                            <path d="M9.35000001,19.8888889 L12.5,19.8888889 L12.5,13.4943333 L8.30000001,9.81255556 L4.10000001,13.4943333 L4.10000001,19.8888889 L7.25000001,19.8888889 L7.25000001,15.6666667 L9.35000001,15.6666667 L9.35000001,19.8888889 Z M21.95,22 L3.05000001,22 C2.47010102,22 2,21.5274117 2,20.9444444 L2,13.0140556 C2,12.7088967 2.13130446,12.418656 2.36015001,12.2181667 L6.20000001,8.852 L6.20000001,4.05555556 C6.20000001,3.47258832 6.67010102,3 7.25000001,3 L21.95,3 C22.529899,3 23,3.47258832 23,4.05555556 L23,20.9444444 C23,21.5274117 22.529899,22 21.95,22 Z M16.7,11.4444444 L16.7,13.5555556 L18.8,13.5555556 L18.8,11.4444444 L16.7,11.4444444 Z M16.7,15.6666667 L16.7,17.7777778 L18.8,17.7777778 L18.8,15.6666667 L16.7,15.6666667 Z M16.7,7.22222222 L16.7,9.33333333 L18.8,9.33333333 L18.8,7.22222222 L16.7,7.22222222 Z M12.5,7.22222222 L12.5,9.33333333 L14.6,9.33333333 L14.6,7.22222222 L12.5,7.22222222 Z" id="Shape" fill="#9A0591" fill-rule="nonzero"></path>
                        </g>
                    </g>
                </g>
            </g>
        </g>
    </g>
</svg>