<svg width="148" height="148" viewBox="0 0 148 148" xmlns="http://www.w3.org/2000/svg" xmlns:xlink="http://www.w3.org/1999/xlink">
    <defs>
        <filter x="-181.2%" y="-131.2%" width="462.5%" height="462.5%" filterUnits="objectBoundingBox" id="a">
            <feOffset dy="24" in="SourceAlpha" result="shadowOffsetOuter1"/>
            <feGaussianBlur stdDeviation="25" in="shadowOffsetOuter1" result="shadowBlurOuter1"/>
            <feColorMatrix values="0 0 0 0 0 0 0 0 0 0 0 0 0 0 0 0 0 0 0.150000006 0" in="shadowBlurOuter1"/>
        </filter>
        <circle id="b" cx="24" cy="24" r="24"/>
        <path id="c" d="M0 0h24v24H0z"/>
    </defs>
    <g fill="none" fill-rule="evenodd">
        <g>
            <use fill="#000" filter="url(#a)" xlink:href="#b"/>
            <use fill="#FAFAFA" xlink:href="#b"/>
        </g>
        <g transform="translate(12 12)">
            <mask id="d" fill="#fff">
                <use xlink:href="#c"/>
            </mask>
            <path d="M4.58 3.67a.91.91 0 0 1 1.399-.766L19 11.234a.91.91 0 0 1 0 1.532l-13.022 8.33a.91.91 0 0 1-1.4-.766V3.67z" fill="#8D1D8C" fill-rule="nonzero" mask="url(#d)"/>
            <path d="M4.931 19.343V3.64c0-.021.003-.04.005-.061-.005.075-.002.012.002-.01l.035-.124c-.023.07-.007.012.005-.007.017-.028.03-.056.05-.084.009-.017.02-.03.03-.045-.042.059-.014.02-.003.007.033-.032.064-.063.099-.093-.056.049-.014.009.005-.003a1.29 1.29 0 0 1 .058-.035c.017-.01.033-.016.05-.026.067-.037-.052.014.016-.007.044-.011.087-.025.131-.035.08-.02-.047-.007.002 0 .021.003.047-.002.068-.002.02 0 .038 0 .057.002.004 0 .091.017.037.003-.056-.015.035.009.038.009a.84.84 0 0 1 .082.026c.06.018.011.004-.003-.003l.08.043c.01.004.019.011.026.016l.007.005.1.063.526.335 2.048 1.31c.96.617 1.924 1.23 2.885 1.847 1.02.652 2.04 1.306 3.061 1.957l2.634 1.685c.523.335 1.046.67 1.57 1.003.052.033.102.066.153.096l.035.022c.002 0 .003 0 .005.002.016.012.035.023.052.035-.054-.042-.003 0 .009.012.023.026.047.049.07.072.014.015.028.052-.002-.002.01.017.021.03.03.047.014.023.026.05.04.075.01.019.017.059-.002-.007.014.044.028.087.04.134a.433.433 0 0 1 .01.053c-.015-.089-.003-.004-.003.017 0 .026-.012.164.002.07a.85.85 0 0 1-.03.134c-.005.019-.012.035-.02.051.024-.072.008-.014-.004.005-.012.021-.02.042-.035.061-.007.01-.06.084-.012.021-.03.038-.065.07-.1.106-.01.009-.052.042 0 .002l-.052.035c-.002 0-.002.002-.005.002a.214.214 0 0 1-.03.02l-1.196.763c-.803.513-1.607 1.03-2.411 1.542-1.01.645-2.018 1.292-3.028 1.936-.992.635-1.986 1.27-2.977 1.906-.776.497-1.551.994-2.327 1.488-.347.223-.692.448-1.04.666a1.824 1.824 0 0 1-.116.065c.059-.03.017-.007.003-.002l-.07.021c-.024.007-.048.01-.071.016.063-.018.035-.002.01-.002a1.36 1.36 0 0 1-.139 0c-.066-.002-.002 0 .012.002-.026-.004-.054-.009-.08-.016-.023-.005-.124-.042-.087-.026.038.017-.06-.033-.08-.044-.018-.012-.037-.028-.056-.038-.044-.02.054.054-.004-.004-.033-.033-.066-.064-.096-.099.049.054-.01-.016-.026-.04-.014-.023-.026-.049-.04-.072-.01-.02-.014-.057.002.007-.011-.047-.028-.092-.04-.139-.004-.018-.002-.063 0 .005.008-.023.005-.054.005-.084-.002-.183-.16-.361-.351-.352-.188.01-.354.155-.352.352.007.464.26.911.684 1.12.401.197.865.185 1.247-.052.087-.053.174-.11.258-.166.57-.363 1.14-.729 1.709-1.092l2.749-1.758c1.038-.666 2.079-1.329 3.117-1.995.947-.604 1.894-1.211 2.84-1.816.638-.408 1.278-.816 1.916-1.226l.4-.255c.127-.082.247-.176.34-.295.307-.387.364-.9.155-1.348-.129-.274-.359-.448-.602-.605l-.565-.36-2.142-1.372c-.985-.63-1.972-1.26-2.956-1.891-1.036-.661-2.07-1.324-3.105-1.985l-2.595-1.66-1.418-.907c-.321-.206-.677-.312-1.062-.225-.593.134-.97.68-.972 1.27V20.334c0 .183.161.361.351.352.193-.014.354-.16.354-.356v-.987z" fill="#8D1D8C" fill-rule="nonzero" mask="url(#d)"/>
        </g>
    </g>
</svg>
